<?xml version="1.0" encoding="utf-8"?>
<!-- Generator: Adobe Illustrator 16.0.0, SVG Export Plug-In . SVG Version: 6.00 Build 0)  -->
<!DOCTYPE svg PUBLIC "-//W3C//DTD SVG 1.1//EN" "http://www.w3.org/Graphics/SVG/1.1/DTD/svg11.dtd">
<svg version="1.1" id="Layer_1" xmlns="http://www.w3.org/2000/svg" xmlns:xlink="http://www.w3.org/1999/xlink" x="0px" y="0px"
	 width="64.667px" height="97.7px" viewBox="0 0 64.667 97.7" enable-background="new 0 0 64.667 97.7" xml:space="preserve">
<g>
	<path fill="#D22028" d="M32.333,0C14.477,0,0,14.476,0,32.333c0,5.821,1.546,11.278,4.239,15.997H4.18l14.055,24.686L32.29,97.7
		l14.054-24.684l13.416-23.564c3.106-4.964,4.908-10.83,4.908-17.119C64.667,14.476,50.191,0,32.333,0z M38.972,52.522l0.951,4.912
		L26.05,52.647c-0.069-0.021-0.135-0.049-0.203-0.07l-1.104-0.381l0.019-0.016c-7.998-3.053-13.689-10.775-13.689-19.847
		c0-11.742,9.52-21.26,21.261-21.26c11.742,0,21.261,9.518,21.261,21.26C53.594,41.756,47.46,49.731,38.972,52.522z"/>
</g>
</svg>
