<?xml version="1.0" encoding="utf-8"?>
<!-- Generator: Adobe Illustrator 16.0.0, SVG Export Plug-In . SVG Version: 6.00 Build 0)  -->
<!DOCTYPE svg PUBLIC "-//W3C//DTD SVG 1.1//EN" "http://www.w3.org/Graphics/SVG/1.1/DTD/svg11.dtd">
<svg version="1.1" id="Layer_1" xmlns="http://www.w3.org/2000/svg" xmlns:xlink="http://www.w3.org/1999/xlink" x="0px" y="0px"
	 width="172.914px" height="82.205px" viewBox="0 0 172.914 82.205" enable-background="new 0 0 172.914 82.205"
	 xml:space="preserve">
<g>
	<g>
		<path fill="#EFD13D" d="M137.419,36.617c0-17.237-14.023-31.261-31.262-31.261c-17.237,0-31.261,14.023-31.261,31.261
			c0,12.865,8.086,24.595,20.122,29.191l0.146,0.055l31.7,10.986l-2.825-14.588C132.285,56.529,137.419,47.048,137.419,36.617z
			 M112.796,56.806l0.952,4.912l-15.161-5.254c-7.998-3.053-13.69-10.775-13.69-19.847c0-11.742,9.52-21.26,21.26-21.26
			c11.742,0,21.262,9.518,21.262,21.26C127.419,46.041,121.285,54.015,112.796,56.806z"/>
	</g>
	<g>
		<path fill="#FFFFFF" d="M5.729,52.199V21.384h6.776V33.21h12.473V21.384h6.776v30.815h-6.776V38.906H12.505v13.292H5.729z"/>
		<path fill="#FFFFFF" d="M36.372,41.064c0-3.567,1.05-6.422,3.15-8.567c2.1-2.143,4.891-3.215,8.373-3.215
			c3.51,0,6.315,1.072,8.416,3.215c2.1,2.145,3.15,5,3.15,8.567c0,3.539-1.05,6.381-3.15,8.523
			c-2.101,2.145-4.906,3.217-8.416,3.217c-3.481,0-6.272-1.072-8.373-3.217C37.421,47.445,36.372,44.603,36.372,41.064z
			 M42.5,41.064c0,2.043,0.388,3.668,1.165,4.877c0.92,1.496,2.331,2.244,4.229,2.244c3.625,0,5.438-2.373,5.438-7.121
			c0-4.775-1.813-7.164-5.438-7.164C44.298,33.9,42.5,36.289,42.5,41.064z"/>
		<path fill="#FFFFFF" d="M63.604,52.199V21.384h6.128v30.815H63.604z"/>
		<path fill="#FFFFFF" d="M94.031,52.199V27.081h-9.236v-5.697h25.248v5.697h-9.236v25.118H94.031z"/>
		<path fill="#FFFFFF" d="M118.803,36.749h-6.128c0.172-2.647,1.338-4.604,3.495-5.87c1.784-1.064,4.114-1.597,6.991-1.597
			c6.531,0,9.797,2.114,9.797,6.344v11.61c0,2.475,0.26,4.129,0.777,4.963h-6.215c-0.259-0.805-0.403-1.523-0.432-2.158
			c-1.756,1.842-4.258,2.764-7.51,2.764c-2.244,0-4.043-0.547-5.395-1.641c-1.467-1.18-2.201-2.863-2.201-5.049
			c0-2.273,0.791-3.971,2.374-5.094c1.15-0.777,2.892-1.337,5.222-1.683c3.309-0.46,4.992-0.704,5.05-0.733
			c1.468-0.374,2.201-1.107,2.201-2.201c0-1.208-0.403-2.043-1.208-2.503c-0.576-0.346-1.497-0.519-2.763-0.519
			C120.357,33.382,119.003,34.504,118.803,36.749z M126.831,43.568v-2.287c-0.489,0.432-1.554,0.762-3.194,0.992
			c-1.87,0.287-3.107,0.561-3.711,0.82c-1.209,0.547-1.813,1.467-1.813,2.762c0,1.898,1.252,2.848,3.754,2.848
			C125.175,48.703,126.831,46.992,126.831,43.568z"/>
		<path fill="#FFFFFF" d="M135.375,52.199l8.027-11.739l-7.337-10.573h6.992l3.927,5.826l3.884-5.826h6.776l-7.337,10.444
			l8.243,11.868h-6.991l-4.661-7.035l-4.661,7.035H135.375z"/>
		<path fill="#FFFFFF" d="M167.183,21.384v5.05h-6.129v-5.05H167.183z M161.054,52.199V29.887h6.129v22.312H161.054z"/>
	</g>
	<g>
		<path fill="#FFFFFF" d="M130.816,62.593c-0.121,0.018-0.484,0.088-0.589,0.088c-0.329,0-0.399-0.434-0.399-0.678
			c0-0.641,0.538-1.818,0.971-2.305c1.006-1.145,3.814-1.682,5.305-1.682c1.301,0,1.941,0.348,1.941,2.738
			c0,0.938,0,1.752-4.264,4.021c-1.474,0.781-2.947,1.596-4.247,2.619l0.034,0.033l6.744-1.178
			c-0.451,1.283-0.764,2.479-2.307,2.773c-2.703,0.502-4.715,0.59-5.165,0.242c-0.521-0.416-0.763-1.316-0.763-1.941
			c0-1.578,4.939-4.107,6.258-4.836c0.729-0.398,2.443-1.318,2.443-2.271c0-0.346-0.416-0.449-0.658-0.449
			c-1.439,0-3.397,1.021-4.68,1.629v0.035l1.021,0.121c0.227,0.033,0.66,0.033,0.66,0.363c0,0.242-0.244,0.295-0.434,0.313
			L130.816,62.593z"/>
		<path fill="#FFFFFF" d="M144.322,66.564c-0.189,0.658-0.294,0.936-0.294,1.299c0,0.33,0.173,0.59,0.347,0.85
			c-0.398,0.174-1.75,0.971-2.08,0.971c-0.363,0-0.416-0.607-0.416-0.867c0-0.676,0.225-1.352,0.347-2.113
			c-1.872,0.086-3.155,0.293-3.415-0.191c-0.242-0.451-0.52-1.023-0.52-1.543c0-0.9,1.369-2.34,2.027-2.912
			c2.201-1.906,6.432-3.969,7.523-3.969c0.295,0,0.658,0.139,0.658,0.484c0,0.191-0.225,0.416-0.363,0.537
			c0.313,0.156,0.416,0.451,0.346,0.781c-0.033,0.311-0.189,0.676-0.449,1.004c-0.902,1.109-1.664,2.219-2.463,3.484
			c0.434,0,0.885-0.086,1.318-0.086c0.329,0,0.641,0.068,0.641,0.434c0,0.381-0.641,1.266-0.779,1.543L144.322,66.564z
			 M147.46,59.492l-0.035-0.035c-0.763,0.346-1.543,0.693-2.254,1.109c-3.605,2.115-4.645,3.432-4.854,3.918
			c0,0.086,0.191,0.154,0.643,0.172c0.467,0.035,1.213,0,2.34-0.139L147.46,59.492z"/>
		<path fill="#FFFFFF" d="M153.027,63.929c-1.924,3.137-2.375,4.35-3.104,6.533c-0.051,0.156-0.139,0.383-0.328,0.383
			c-0.66,0-1.127-0.555-1.127-1.18c0-1.49,2.686-5.875,4.039-8.129c1.819-3.051,3.361-4.75,4.42-5.617
			c0.086,0.313,0.156,0.625,0.156,0.953c0,0.521-0.365,1.041-0.625,1.475L153.027,63.929z"/>
		<path fill="#FFFFFF" d="M164.625,60.324c-4.038-0.105-4.402,0.363-5.147,0.744c-0.139,0.07-0.364,0.242-0.555,0.242
			s-0.45-0.172-0.45-0.381c0-0.381,1.039-1.646,1.316-1.941c0.521-0.537,1.646-0.971,5.895-0.971c0.312,0,0.744,0.018,0.953,0.313
			c0.174,0.26,0.434,1.057,0.434,1.369c0,0.381-0.607,0.814-0.867,1.023c-2.219,1.889-4.057,4.107-4.923,7.453
			c0.139-0.053,0.277-0.086,0.416-0.086c0.104,0,0.173,0.051,0.19,0.172c0.035,0.26-1.785,1.475-2.514,1.508
			c-0.658,0.035-0.883-0.502-0.883-1.092c0-1.387,1.611-3.432,2.461-4.506L164.625,60.324z"/>
	</g>
	<g>
		<path fill="#FFFFFF" d="M5.729,62.669h2.409c0.973,0,1.611,0.57,1.611,1.551c0,0.979-0.638,1.549-1.611,1.549H6.247v2.326H5.729
			V62.669z M6.247,65.33h1.778c0.722,0,1.208-0.357,1.208-1.109c0-0.754-0.486-1.111-1.208-1.111H6.247V65.33z"/>
		<path fill="#FFFFFF" d="M13.552,62.554c1.702,0,2.553,1.338,2.553,2.828c0,1.488-0.851,2.826-2.553,2.826
			c-1.71,0-2.561-1.338-2.561-2.826C10.991,63.892,11.842,62.554,13.552,62.554z M13.552,67.767c1.428,0,2.036-1.199,2.036-2.385
			s-0.608-2.387-2.036-2.387c-1.437,0-2.044,1.201-2.044,2.387S12.116,67.767,13.552,67.767z"/>
		<path fill="#FFFFFF" d="M17.659,62.669h0.76l1.877,4.756l1.869-4.756h0.76v5.426h-0.517v-4.689h-0.015l-1.854,4.689h-0.486
			l-1.862-4.689h-0.015v4.689h-0.517V62.669z"/>
		<path fill="#FFFFFF" d="M27.041,62.554c1.702,0,2.553,1.338,2.553,2.828c0,1.488-0.851,2.826-2.553,2.826
			c-1.71,0-2.561-1.338-2.561-2.826C24.479,63.892,25.331,62.554,27.041,62.554z M27.041,67.767c1.428,0,2.036-1.199,2.036-2.385
			s-0.608-2.387-2.036-2.387c-1.437,0-2.044,1.201-2.044,2.387S25.604,67.767,27.041,67.767z"/>
		<path fill="#FFFFFF" d="M35.129,64.31c-0.182-0.836-0.874-1.314-1.664-1.314c-1.436,0-2.044,1.201-2.044,2.387
			s0.608,2.385,2.044,2.385c1.003,0,1.641-0.773,1.74-1.74h0.517c-0.145,1.338-0.988,2.182-2.257,2.182
			c-1.71,0-2.561-1.338-2.561-2.826c0-1.49,0.851-2.828,2.561-2.828c1.033,0,2.037,0.625,2.181,1.756H35.129z"/>
		<path fill="#FFFFFF" d="M40.149,62.669h1.876c1.642,0.037,2.493,0.92,2.493,2.713s-0.851,2.674-2.493,2.713h-1.876V62.669z
			 M40.666,67.654h1.102c1.558,0,2.234-0.646,2.234-2.271c0-1.627-0.676-2.273-2.234-2.273h-1.102V67.654z"/>
		<path fill="#FFFFFF" d="M46.118,62.669h2.484c0.889,0,1.649,0.434,1.649,1.412c0,0.693-0.357,1.24-1.057,1.385v0.014
			c0.707,0.1,0.912,0.57,0.95,1.225c0.022,0.371,0.022,1.125,0.25,1.391h-0.57c-0.122-0.205-0.122-0.615-0.145-0.844
			c-0.038-0.76-0.114-1.604-1.086-1.566h-1.96v2.41h-0.517V62.669z M46.635,65.246h1.93c0.63,0,1.17-0.396,1.17-1.057
			c0-0.668-0.387-1.08-1.17-1.08h-1.93V65.246z"/>
		<path fill="#FFFFFF" d="M54.222,62.554c1.702,0,2.553,1.338,2.553,2.828c0,1.488-0.851,2.826-2.553,2.826
			c-1.71,0-2.561-1.338-2.561-2.826C51.661,63.892,52.512,62.554,54.222,62.554z M54.222,67.767c1.428,0,2.036-1.199,2.036-2.385
			s-0.608-2.387-2.036-2.387c-1.437,0-2.044,1.201-2.044,2.387S52.785,67.767,54.222,67.767z"/>
		<path fill="#FFFFFF" d="M62.979,68.095h-0.373l-0.068-0.988h-0.015c-0.365,0.775-1.094,1.102-1.877,1.102
			c-1.71,0-2.561-1.338-2.561-2.826c0-1.49,0.851-2.828,2.561-2.828c1.14,0,2.059,0.617,2.265,1.803h-0.517
			c-0.061-0.623-0.722-1.361-1.748-1.361c-1.436,0-2.044,1.201-2.044,2.387s0.608,2.385,2.044,2.385c1.201,0,1.9-0.836,1.877-1.99
			h-1.847v-0.441h2.303V68.095z"/>
		<path fill="#FFFFFF" d="M67.01,62.554c1.702,0,2.553,1.338,2.553,2.828c0,1.488-0.851,2.826-2.553,2.826
			c-1.71,0-2.561-1.338-2.561-2.826C64.449,63.892,65.3,62.554,67.01,62.554z M67.01,67.767c1.428,0,2.036-1.199,2.036-2.385
			s-0.608-2.387-2.036-2.387c-1.437,0-2.044,1.201-2.044,2.387S65.574,67.767,67.01,67.767z"/>
		<path fill="#FFFFFF" d="M70.585,62.669h0.555l1.231,4.748h0.015l1.322-4.748h0.646l1.33,4.748H75.7l1.238-4.748h0.517
			l-1.497,5.426h-0.547l-1.375-4.855H74.02l-1.368,4.855H72.09L70.585,62.669z"/>
		<path fill="#FFFFFF" d="M80.24,62.669h0.578l2.127,5.426h-0.555l-0.661-1.688h-2.47l-0.653,1.688h-0.555L80.24,62.669z
			 M79.419,65.966h2.135l-1.048-2.781L79.419,65.966z"/>
	</g>
</g>
</svg>
